<svg xmlns="http://www.w3.org/2000/svg" width="20" height="20" viewBox="0 0 20 20" fill="none">
<g clip-path="url(#clip0_3059_4195)">
<path d="M18.3333 2.5H1.66667C1.22464 2.5 0.800716 2.67559 0.488155 2.98816C0.175595 3.30072 0 3.72464 0 4.16667L0 4.58333C0 4.69384 0.0438987 4.79982 0.122039 4.87796C0.200179 4.9561 0.30616 5 0.416667 5H19.5833C19.6938 5 19.7998 4.9561 19.878 4.87796C19.9561 4.79982 20 4.69384 20 4.58333V4.16667C20 3.72464 19.8244 3.30072 19.5118 2.98816C19.1993 2.67559 18.7754 2.5 18.3333 2.5ZM19.5833 7.5H0.416667C0.30616 7.5 0.200179 7.5439 0.122039 7.62204C0.0438987 7.70018 0 7.80616 0 7.91667L0 15.8333C0 16.2754 0.175595 16.6993 0.488155 17.0118C0.800716 17.3244 1.22464 17.5 1.66667 17.5H18.3333C18.7754 17.5 19.1993 17.3244 19.5118 17.0118C19.8244 16.6993 20 16.2754 20 15.8333V7.91667C20 7.80616 19.9561 7.70018 19.878 7.62204C19.7998 7.5439 19.6938 7.5 19.5833 7.5ZM7.91667 14.1667C8.02717 14.1667 8.13315 14.1228 8.21129 14.0446C8.28943 13.9665 8.33333 13.8605 8.33333 13.75C8.33333 13.6395 8.37723 13.5335 8.45537 13.4554C8.53351 13.3772 8.63949 13.3333 8.75 13.3333C8.86051 13.3333 8.96649 13.3772 9.04463 13.4554C9.12277 13.5335 9.16667 13.6395 9.16667 13.75C9.16667 14.0815 9.03497 14.3995 8.80055 14.6339C8.56613 14.8683 8.24819 15 7.91667 15C7.58515 15 7.2672 14.8683 7.03278 14.6339C6.79836 14.3995 6.66667 14.0815 6.66667 13.75V12.0833C6.66667 11.7518 6.79836 11.4339 7.03278 11.1994C7.2672 10.965 7.58515 10.8333 7.91667 10.8333C8.24819 10.8333 8.56613 10.965 8.80055 11.1994C9.03497 11.4339 9.16667 11.7518 9.16667 12.0833C9.16667 12.1938 9.12277 12.2998 9.04463 12.378C8.96649 12.4561 8.86051 12.5 8.75 12.5C8.63949 12.5 8.53351 12.4561 8.45537 12.378C8.37723 12.2998 8.33333 12.1938 8.33333 12.0833C8.33333 11.9728 8.28943 11.8668 8.21129 11.7887C8.13315 11.7106 8.02717 11.6667 7.91667 11.6667C7.80616 11.6667 7.70018 11.7106 7.62204 11.7887C7.5439 11.8668 7.5 11.9728 7.5 12.0833V13.75C7.5 13.8605 7.5439 13.9665 7.62204 14.0446C7.70018 14.1228 7.80616 14.1667 7.91667 14.1667ZM12.5 13.3333C12.5014 13.416 12.4782 13.4972 12.4333 13.5667L11.6 14.8167C11.5619 14.8734 11.5104 14.9199 11.4501 14.952C11.3898 14.9841 11.3225 15.0009 11.2542 15.0009C11.1858 15.0009 11.1185 14.9841 11.0582 14.952C10.9979 14.9199 10.9464 14.8734 10.9083 14.8167L10.075 13.5667C10.0272 13.4982 10.001 13.4169 10 13.3333V11.25C10 11.1395 10.0439 11.0335 10.122 10.9554C10.2002 10.8772 10.3062 10.8333 10.4167 10.8333C10.5272 10.8333 10.6332 10.8772 10.7113 10.9554C10.7894 11.0335 10.8333 11.1395 10.8333 11.25V13.2083L11.25 13.8333L11.6667 13.2083V11.25C11.6667 11.1395 11.7106 11.0335 11.7887 10.9554C11.8668 10.8772 11.9728 10.8333 12.0833 10.8333C12.1938 10.8333 12.2998 10.8772 12.378 10.9554C12.4561 11.0335 12.5 11.1395 12.5 11.25V13.3333ZM15.8333 13.3333C15.8348 13.416 15.8115 13.4972 15.7667 13.5667L14.9333 14.8167C14.8952 14.8734 14.8437 14.9199 14.7834 14.952C14.7231 14.9841 14.6558 15.0009 14.5875 15.0009C14.5192 15.0009 14.4519 14.9841 14.3916 14.952C14.3313 14.9199 14.2798 14.8734 14.2417 14.8167L13.4083 13.5667C13.3605 13.4982 13.3344 13.4169 13.3333 13.3333V11.25C13.3333 11.1395 13.3772 11.0335 13.4554 10.9554C13.5335 10.8772 13.6395 10.8333 13.75 10.8333C13.8605 10.8333 13.9665 10.8772 14.0446 10.9554C14.1228 11.0335 14.1667 11.1395 14.1667 11.25V13.2083L14.5833 13.8333L15 13.2083V11.25C15 11.1395 15.0439 11.0335 15.122 10.9554C15.2002 10.8772 15.3062 10.8333 15.4167 10.8333C15.5272 10.8333 15.6332 10.8772 15.7113 10.9554C15.7894 11.0335 15.8333 11.1395 15.8333 11.25V13.3333Z" fill="#2E2E2E"/>
</g>
<defs>
<clipPath id="clip0_3059_4195">
<rect width="20" height="20" fill="white"/>
</clipPath>
</defs>
</svg>