<svg xmlns="http://www.w3.org/2000/svg" xmlns:xlink="http://www.w3.org/1999/xlink" width="22px" height="20px" viewBox="0 0 22 20" version="1.1">
    <title>Logo/Bank/Fedral Bank</title>
    <defs>
        <path d="M2.22660952,0.0587714286 L2.22660952,0.0590857143 L0.0501809524,0.0616 C0.534447222,0.0596924603 1.11825112,0.0589011078 1.73453936,0.0587581287" id="path-1"/>
        <path d="M7.15041905,0.0590857143 L7.0149619,0.7854 C7.0149619,0.7854 5.2241619,0.6974 3.14285714,0.860409524 C0.669742857,1.05400952 0.0493428571,2.48830476 0.0493428571,2.48830476 L0.0676761905,2.3900381 C0.765180952,0.224295238 3.72858095,0.0701904762 4.26265714,0.0655809524 C4.46034286,0.0639047619 4.70150476,0.062647619 4.97399048,0.0616 L4.97399048,0.0616" id="path-3"/>
        <path d="M4.25008571,0.0589809524 C4.25144762,0.0590857143 4.25490476,0.0592952381 4.25490476,0.0592952381 L4.25490476,0.0592952381 L4.25469524,0.0589809524 L14.416181,0.0589809524 L14.2830286,0.773247619 C14.2830286,0.773247619 7.66605714,0.725790476 5.97980952,0.71332381 C4.2935619,0.700752381 3.06952381,0.613380952 1.67042857,1.07559048 C0.301306383,1.52786322 0.0316338744,2.33226895 0.0207782413,2.36629424 L0.0205333333,2.36699048 L0.0260333333,2.33435714 L0.0260333333,2.33435714 L0.031952381,2.30193333 L0.0432666667,2.24085714 C0.0453619048,2.2308 0.0476666667,2.22137143 0.0499714286,2.21152381 C0.358285714,1.24310476 1.03473333,0.691219048 1.81625714,0.395057143 C2.43204762,0.161647619 3.08733333,0.0826571429 3.56410476,0.0589809524 L3.56410476,0.0589809524 L4.25008571,0.0589809524 Z" id="path-5"/>
    </defs>
    <g id="Logos" stroke="none" stroke-width="1" fill="none" fill-rule="evenodd">
        <g id="Checkout-X-Icon-&amp;-Logo-Repository" transform="translate(-263.000000, -1216.000000)">
            <g id="Group" transform="translate(262.000000, 1214.000000)">
                <g id="Favicon" transform="translate(1.000000, 2.000000)">
                    <path d="M4.4,11.5461133 C1.92688571,11.7397133 1.30648571,13.1740086 1.30648571,13.1740086 L1.32481905,13.0758467 C1.32377143,13.0795133 1.3222,13.0828657 1.32094286,13.0866371 L0.0656857143,19.8523705 L4.07377143,19.8523705 C5.60853333,19.8523705 6.92486667,18.757399 7.20426667,17.2483038 L8.27210476,11.4711038 C8.27210476,11.4711038 6.48130476,11.3831038 4.4,11.5461133" id="Fill-1" fill="#044680"/>
                    <g id="Group-5" transform="translate(6.180952, 10.685714)">
                        <mask id="mask-2" fill="white">
                            <use xlink:href="#path-1"/>
                        </mask>
                        <g id="Clip-4"/>
                        <path d="M0.0501809524,0.0616 L2.22660952,0.0590857143 L2.22660952,0.0587714286 C1.43240952,0.0585619048 0.661885714,0.0591904762 0.0501809524,0.0616" id="Fill-3" mask="url(#mask-2)"/>
                    </g>
                    <path d="M5.51985238,10.7512952 C4.98567143,10.7559048 2.02227143,10.9100095 1.32487143,13.0757524 L1.30643333,13.174019 C1.30643333,13.174019 1.92683333,11.7397238 4.40005238,11.5461238 C6.48135714,11.3831143 8.27205238,11.4711143 8.27205238,11.4711143 L8.40750952,10.7448 L6.23118571,10.7473143 C5.95859524,10.7483619 5.7175381,10.749619 5.51985238,10.7512952" id="Fill-6" fill="#044680"/>
                    <g id="Group-10" transform="translate(1.257143, 10.685714)">
                        <mask id="mask-4" fill="white">
                            <use xlink:href="#path-3"/>
                        </mask>
                        <g id="Clip-9"/>
                        <path d="M4.26265714,0.0655809524 C3.72858095,0.0701904762 0.765180952,0.224295238 0.0676761905,2.3900381 L0.0493428571,2.48830476 C0.0493428571,2.48830476 0.669742857,1.05400952 3.14285714,0.860409524 C5.2241619,0.6974 7.0149619,0.7854 7.0149619,0.7854 L7.15041905,0.0590857143 L4.97399048,0.0616 C4.70150476,0.062647619 4.46034286,0.0639047619 4.26265714,0.0655809524" id="Fill-8" mask="url(#mask-4)"/>
                    </g>
                    <path d="M2.35356,7.55738762 L2.75542667,5.40180667 L2.75427429,5.40180667 L2.34800762,7.58368286 C2.35010286,7.57362571 2.35240762,7.56419714 2.35471238,7.55434952 C2.35429333,7.55539714 2.35387429,7.55634 2.35356,7.55738762" id="Fill-11" fill="#ED9F2D"/>
                    <path d="M8.2845819,6.05613905 C6.59833429,6.04367238 5.37429619,5.95619619 3.97520095,6.41840571 C2.57631524,6.88051048 2.32520095,7.71032952 2.32520095,7.71032952 C2.32855333,7.68780571 2.33274381,7.66653905 2.33672476,7.64485333 L2.15307714,8.63087238 L2.14752476,8.62741524 L1.75362,10.7521962 L1.32095333,13.0866057 C1.32221048,13.0828343 1.3237819,13.0794819 1.32482952,13.0758152 C2.02233429,10.9099676 4.98573429,10.7558629 5.51981048,10.7512533 C5.71749619,10.7496819 5.9586581,10.74832 6.23114381,10.7472724 C6.84284857,10.7449676 7.61337238,10.7442343 8.40757238,10.7444438 C10.4811248,10.7448629 12.7173724,10.7512533 12.7173724,10.7512533 C14.4607152,10.7512533 15.9562962,9.50846286 16.2755057,7.79445333 L16.7209533,5.40179619 L16.587801,6.11606286 C16.587801,6.11606286 9.97082952,6.06860571 8.2845819,6.05613905" id="Fill-13" fill="#ED9F2D"/>
                    <path d="M2.33671429,7.64479048 L2.34802857,7.58371429 C2.34394286,7.60351429 2.34038095,7.62425714 2.33671429,7.64479048" id="Fill-15"/>
                    <polygon id="Fill-16" points="6.55453333 5.4018381 5.86907619 5.4018381 5.86886667 5.4018381 6.55484762 5.4018381"/>
                    <polygon id="Fill-17" points="6.55945714 5.4018381 16.7209429 5.4018381 16.7075333 5.4018381"/>
                    <path d="M6.55968762,5.40219429 C6.55968762,5.40219429 6.55623048,5.40198476 6.55486857,5.40188 L5.86878286,5.40188 C5.39201143,5.42555619 4.73683048,5.50454667 4.12104,5.73795619 C3.33951619,6.0341181 2.66306857,6.58589905 2.35464952,7.5543181 C2.35244952,7.56416571 2.35004,7.57369905 2.34804952,7.58365143 L2.33663048,7.64483238 C2.33275429,7.6665181 2.32856381,7.68778476 2.32521143,7.71030857 C2.32521143,7.71030857 2.57632571,6.88048952 3.97521143,6.41838476 C5.37430667,5.95628 6.59834476,6.04365143 8.28459238,6.0561181 C9.97084,6.06858476 16.5878114,6.1160419 16.5878114,6.1160419 L16.7209638,5.40188 L6.5594781,5.40188 L6.55968762,5.40219429 Z" id="Fill-18" fill="#ED9F2D"/>
                    <g id="Group-22" transform="translate(2.304762, 5.342857)">
                        <mask id="mask-6" fill="white">
                            <use xlink:href="#path-5"/>
                        </mask>
                        <g id="Clip-21"/>
                        <path d="M4.25490476,0.0592952381 C4.25490476,0.0592952381 4.25144762,0.0590857143 4.25008571,0.0589809524 L3.56410476,0.0589809524 C3.08733333,0.0826571429 2.43204762,0.161647619 1.81625714,0.395057143 C1.03473333,0.691219048 0.358285714,1.24310476 0.0499714286,2.21152381 C0.0476666667,2.22137143 0.0453619048,2.2308 0.0432666667,2.24085714 L0.031952381,2.30193333 C0.0280761905,2.32361905 0.0238857143,2.34488571 0.0204285714,2.36740952 C0.0204285714,2.36740952 0.271542857,1.53769524 1.67042857,1.07559048 C3.06952381,0.613380952 4.2935619,0.700752381 5.97980952,0.71332381 C7.66605714,0.725790476 14.2830286,0.773247619 14.2830286,0.773247619 L14.416181,0.0589809524 L4.25469524,0.0589809524 L4.25490476,0.0592952381 Z" id="Fill-20" mask="url(#mask-6)"/>
                    </g>
                    <path d="M4.88288952,0.0523809524 C4.22907048,0.0523809524 3.66796571,0.518361905 3.54790857,1.16107619 L3.5464419,1.15898095 L2.75538476,5.4018381 L2.3535181,7.55741905 C2.35383238,7.55637143 2.35425143,7.55542857 2.35467048,7.55438095 C2.66308952,6.5859619 3.33953714,6.03407619 4.12106095,5.73791429 C4.73674667,5.50450476 5.39203238,5.42551429 5.86880381,5.4018381 L5.8691181,5.4018381 L6.55457524,5.4018381 L6.55488952,5.4018381 C6.55625143,5.40194286 6.55970857,5.40215238 6.55970857,5.40215238 L6.55949905,5.4018381 L16.7075752,5.4018381 L18.4880038,5.4018381 C19.8463467,5.4018381 21.0183181,4.44881905 21.2953086,3.11907619 L21.9343562,0.0523809524 L4.88288952,0.0523809524 Z" id="Fill-23" fill="#044680"/>
                </g>
            </g>
        </g>
    </g>
</svg>