<svg width="32" height="32" viewBox="0 0 32 32" fill="none" xmlns="http://www.w3.org/2000/svg"><g id="solar:shop-2-bold"><g id="Group"><path id="Vector" d="M22.0381 2.66797H9.96345C8.35945 2.66797 7.55811 2.66797 6.91278 3.06664C6.26878 3.46397 5.91011 4.1813 5.19278 5.61597L3.32211 10.348C2.88878 11.4413 2.51145 12.7293 3.23945 13.6533C3.58255 14.0888 4.05287 14.4065 4.58495 14.5623C5.11704 14.718 5.68444 14.7041 6.20823 14.5223C6.73201 14.3406 7.18613 14.0001 7.5074 13.5483C7.82868 13.0965 8.00113 12.5557 8.00078 12.0013C8.00078 12.7085 8.28173 13.3868 8.78183 13.8869C9.28193 14.387 9.9602 14.668 10.6674 14.668C11.3747 14.668 12.053 14.387 12.5531 13.8869C13.0532 13.3868 13.3341 12.7085 13.3341 12.0013C13.3341 12.7085 13.6151 13.3868 14.1152 13.8869C14.6153 14.387 15.2935 14.668 16.0008 14.668C16.708 14.668 17.3863 14.387 17.8864 13.8869C18.3865 13.3868 18.6674 12.7085 18.6674 12.0013C18.6674 12.7085 18.9484 13.3868 19.4485 13.8869C19.9486 14.387 20.6269 14.668 21.3341 14.668C22.0414 14.668 22.7196 14.387 23.2197 13.8869C23.7198 13.3868 24.0008 12.7085 24.0008 12.0013C24.0007 12.5556 24.1734 13.0962 24.4947 13.5478C24.8161 13.9994 25.2702 14.3397 25.794 14.5212C26.3177 14.7028 26.885 14.7166 27.4169 14.5608C27.9489 14.4051 28.4191 14.0874 28.7621 13.652C29.4901 12.728 29.1114 11.44 28.6794 10.3466L26.8074 5.61597C26.0901 4.1813 25.7328 3.46397 25.0874 3.06664C24.4434 2.66797 23.6408 2.66797 22.0381 2.66797Z" fill="black"></path><path id="Vector_2" fill-rule="evenodd" clip-rule="evenodd" d="M26.667 28.3347H29.3337C29.5989 28.3347 29.8532 28.4401 30.0408 28.6276C30.2283 28.8151 30.3337 29.0695 30.3337 29.3347C30.3337 29.5999 30.2283 29.8543 30.0408 30.0418C29.8532 30.2293 29.5989 30.3347 29.3337 30.3347H2.66699C2.40178 30.3347 2.14742 30.2293 1.95989 30.0418C1.77235 29.8543 1.66699 29.5999 1.66699 29.3347C1.66699 29.0695 1.77235 28.8151 1.95989 28.6276C2.14742 28.4401 2.40178 28.3347 2.66699 28.3347H5.33366V16.668C6.32566 16.668 7.24433 16.3587 8.00033 15.832C8.78233 16.3778 9.71336 16.6697 10.667 16.668C11.659 16.668 12.5777 16.3587 13.3337 15.832C14.1157 16.3778 15.0467 16.6697 16.0003 16.668C16.9923 16.668 17.911 16.3587 18.667 15.832C19.449 16.3778 20.38 16.6697 21.3337 16.668C22.3257 16.668 23.2443 16.3587 24.0003 15.832C24.7823 16.3778 25.7134 16.6697 26.667 16.668V28.3347ZM12.667 28.3347H19.3337V24.668C19.3337 23.4214 19.3337 22.7987 19.0657 22.3347C18.8903 22.0302 18.6378 21.7773 18.3337 21.6014C17.8697 21.3347 17.247 21.3347 16.0003 21.3347C14.7537 21.3347 14.131 21.3347 13.667 21.6014C13.3628 21.7773 13.1103 22.0302 12.935 22.3347C12.667 22.7987 12.667 23.4214 12.667 24.668V28.3347Z" fill="black"></path></g></g></svg>