<svg viewBox="0 0 38 12" xmlns="http://www.w3.org/2000/svg"><path d="M25.362.265L25.17 1.37c-.42-.195-.726-.272-1.055-.272-.877 0-1.497.784-1.497 1.904 0 .773.42 1.238 1.101 1.238.291 0 .61-.082 1-.262l-.205 1.16a3.93 3.93 0 01-1.039.143c-1.27 0-2.06-.842-2.06-2.194C21.415 1.27 22.506 0 24.071 0a2.19 2.19 0 01.528.055l.486.112c.138.05.17.058.277.098m10.673 4.287h.081c.03.002.06-.002.088-.012a.078.078 0 00.035-.066.068.068 0 00-.035-.059.21.21 0 00-.09-.01h-.078v.147zm0 .322h-.143V4.3h.26a.295.295 0 01.16.032.17.17 0 01.078.143c.002.063-.04.12-.106.145l.113.253h-.16l-.095-.225h-.106v.225zm.096.211c.312.014.575-.198.59-.471.015-.273-.226-.506-.537-.519-.31-.012-.575.199-.59.472v.021c-.007.269.234.491.54.497h-.003zm-.704-.497c.02-.34.35-.604.739-.587.389.018.687.309.668.65-.02.33-.328.587-.703.588-.399-.009-.714-.3-.704-.65zM21.448 1.02a.706.706 0 00-.12-.01c-.387 0-.608.181-.968.676l.105-.628H19.4l-.723 4.133h1.184c.424-2.526.532-2.962 1.1-2.962.028 0 .057 0 .085.004a3.79 3.79 0 01.446-1.198l-.044-.014zm-7.05 4.118a2.882 2.882 0 01-.847.136c-.601 0-.93-.321-.93-.909 0-.124.012-.247.034-.369l.07-.402.057-.331.51-2.82h1.174l-.134.614h.603l-.166 1.005h-.6l-.312 1.724c-.01.077-.02.133-.02.172 0 .212.123.307.401.307.108.004.215-.009.318-.038l-.158.91zM9.754 2.362c0 .522.273.883.893 1.152.474.207.549.269.549.456 0 .257-.21.376-.674.376a3.508 3.508 0 01-1.053-.166l-.162.953.052.01.217.04c.069.014.171.025.306.038.28.024.496.034.649.034 1.235 0 1.807-.439 1.807-1.38 0-.566-.238-.9-.827-1.15-.49-.206-.547-.255-.547-.447 0-.224.194-.34.572-.34.283.006.564.026.843.063l.168-.954a8.349 8.349 0 00-1.033-.083c-1.31.001-1.765.635-1.76 1.398m23.252 1.853c.55 0 .935-.574.935-1.392 0-.525-.219-.811-.628-.811-.535 0-.914.576-.914 1.39.003.54.207.813.607.813zm1.74.973H33.63l.058-.405c-.324.32-.657.46-1.088.46-.861 0-1.426-.683-1.426-1.716 0-1.374.877-2.536 1.92-2.536.457 0 .804.175 1.13.566L34.48.105h1.162l-.897 5.083zM17.469 2.64c.006-.086.008-.156.008-.209 0-.338-.21-.535-.559-.535-.373 0-.641.264-.751.742l1.302.003zm.66 2.462c-.39.11-.798.166-1.21.165-1.313 0-2-.635-2-1.85 0-1.42.873-2.465 2.06-2.465.968 0 1.59.586 1.59 1.504a4.048 4.048 0 01-.147 1.02H16.08a.713.713 0 00-.011.128c0 .482.349.726 1.036.726.425 0 .844-.09 1.221-.263l-.196 1.035zm-13.105.086H3.847l.675-3.905-1.507 3.905h-.807L2.11 1.305 1.4 5.188H.299l.92-5.083h1.696l.046 3.145L4.107.105h1.83zm3.89.002h-.978l.021-.43c-.298.342-.695.5-1.234.5-.641 0-1.078-.46-1.078-1.126 0-1.009.763-1.597 2.07-1.597.16.001.32.011.48.032a.97.97 0 00.046-.27c0-.273-.205-.376-.757-.376a4 4 0 00-.978.118l-.164.042-.103.027.162-.927c.588-.16.978-.222 1.412-.222 1.012 0 1.548.42 1.548 1.212 0 .205-.017.358-.097.82l-.247 1.464-.04.264-.03.21-.02.144-.013.114zm-.857-1.843a2.22 2.22 0 00-.263-.018c-.668 0-1.006.214-1.006.631 0 .257.167.421.424.421.478 0 .826-.42.845-1.034zm20.19 1.843h-.979l.023-.43c-.297.342-.695.5-1.234.5-.64 0-1.08-.46-1.08-1.126 0-1.009.763-1.597 2.073-1.597.16.001.32.011.48.032a.992.992 0 00.046-.27c0-.273-.205-.376-.757-.376a3.95 3.95 0 00-.979.118l-.167.042-.102.027.164-.927c.589-.16.978-.222 1.409-.222 1.014 0 1.55.42 1.55 1.212 0 .205-.02.358-.097.82l-.248 1.464-.037.264-.032.21-.022.144-.011.114zm-.858-1.843a2.2 2.2 0 00-.262-.018c-.67 0-1.009.214-1.009.631 0 .257.167.421.425.421.483 0 .827-.42.846-1.034zM31.54 1.02a.697.697 0 00-.12-.01c-.386 0-.608.181-.97.676l.106-.628H29.49l-.72 4.133h1.18c.424-2.526.535-2.962 1.098-2.962a.366.366 0 01.083.004 3.81 3.81 0 01.452-1.201l-.044-.011zm-3.785 8.194c0-1.044-.586-1.853-1.687-1.853-1.267 0-2.087.983-2.087 2.437 0 1.039.484 1.889 1.685 1.889 1.21 0 2.089-.753 2.089-2.473m-1.16-.017c0 .937-.329 1.488-.849 1.488-.38.01-.61-.361-.61-.92 0-.659.337-1.404.876-1.404.433.003.584.407.584.836M24.359 6.63l-.18 1.101c-.392-.194-.677-.274-.985-.274-.824 0-1.398.786-1.398 1.903 0 .773.385 1.24 1.026 1.24.273 0 .572-.082.936-.262l-.19 1.158a3.454 3.454 0 01-.98.149c-1.188 0-1.924-.843-1.924-2.195 0-1.819 1.02-3.089 2.48-3.089.166 0 .333.018.494.055l.451.113c.143.05.172.06.27.102m-7.285.756a.483.483 0 00-.113-.011c-.357 0-.567.184-.902.672l.097-.627h-.998l-.67 4.132h1.101c.396-2.527.5-2.963 1.028-2.963a.59.59 0 01.08.005 3.97 3.97 0 01.42-1.201l-.043-.007zm12.743 3.151c.518 0 .875-.574.875-1.393 0-.527-.204-.81-.582-.81-.5 0-.856.575-.856 1.39 0 .54.191.813.563.813zm1.626.972h-1.039l.053-.403c-.301.318-.616.459-1.019.459-.801 0-1.328-.683-1.328-1.72 0-1.371.822-2.536 1.793-2.536.429 0 .754.178 1.054.57l.243-1.454h1.081l-.838 5.084zM6.142 9.036c.005-.088.008-.157.008-.21 0-.337-.193-.535-.52-.535-.349 0-.6.266-.698.737l1.21.008zm.617 2.456a3.814 3.814 0 01-1.127.168c-1.228 0-1.87-.636-1.87-1.85 0-1.418.816-2.465 1.924-2.465.909 0 1.485.584 1.485 1.504-.005.343-.05.684-.133 1.02H4.844a1.289 1.289 0 00-.01.128c0 .482.33.724.967.724.4 0 .794-.09 1.143-.262l-.185 1.033zm12.463-2.456c.008-.088.012-.157.012-.21 0-.337-.196-.535-.521-.535-.35 0-.602.266-.702.737l1.211.008zm.619 2.456a3.815 3.815 0 01-1.127.168c-1.231 0-1.872-.636-1.872-1.85 0-1.418.816-2.465 1.923-2.465.909 0 1.487.584 1.487 1.504a4.338 4.338 0 01-.14 1.02h-2.188c-.006.06-.01.092-.01.128 0 .482.328.724.966.724.4 0 .794-.09 1.143-.262l-.182 1.033zm14.738-2.456c.005-.088.008-.157.008-.21 0-.337-.192-.535-.52-.535-.35 0-.6.266-.699.737l1.211.008zm.619 2.456a3.855 3.855 0 01-1.13.168c-1.23 0-1.872-.636-1.872-1.85 0-1.418.818-2.465 1.925-2.465.908 0 1.483.584 1.483 1.504a4.34 4.34 0 01-.134 1.02h-2.19a.839.839 0 00-.01.128c0 .482.328.724.966.724.4 0 .794-.09 1.144-.262l-.182 1.033zM3.502 7.575a1.755 1.755 0 00-.92-.238c-.444 0-.801.08-.801.497 0 .737 1.621.46 1.621 2.032 0 1.432-1.071 1.804-2.039 1.804-.43 0-.926-.123-1.291-.268l.262-1.053c.22.176.666.297 1.03.297.348 0 .889-.083.889-.614 0-.833-1.62-.523-1.62-1.983 0-1.336.946-1.736 1.859-1.736.514 0 .997.066 1.281.23l-.271 1.032zm6.478 3.917c-.227.096-.53.16-.978.16-.962 0-1.558-.845-1.558-1.873 0-1.346.862-2.42 2.131-2.42.28 0 .7.106 1.033.276l-.243.987a1.476 1.476 0 00-.735-.223c-.587 0-1.008.474-1.008 1.323 0 .491.305.89.786.89.26.003.515-.06.735-.18l-.163 1.06zm4.115-1.035c-.057.355-.11.7-.14 1.072h-1.06l.09-.668h-.01c-.333.454-.676.763-1.275.763-.666 0-1.025-.614-1.025-1.417 0-.278.02-.434.09-.866l.3-1.913h1.178l-.316 1.918a4.032 4.032 0 00-.077.624c0 .242.126.487.443.473.483 0 .77-.52.85-1.126l.325-1.89h1.14l-.513 3.03zm22.2 1.021h-.178v-.684h-.258v-.148h.693v.148h-.257v.685zm1.181 0h-.162v-.695l-.16.696h-.175l-.155-.696v.696h-.166v-.833h.26l.155.656.151-.656h.257v.832z" fill="#8E8E8E" fill-rule="evenodd"></path></svg>