<svg viewBox="0 0 29 14" xmlns="http://www.w3.org/2000/svg"><g fill="#8E8E8E" fill-rule="evenodd"><path d="M4.965 2.094C2.442 2.094.39 3.903.39 6.125c0 2.223 2.052 4.032 4.575 4.032h19.07c2.523 0 4.575-1.809 4.575-4.032 0-2.222-2.052-4.031-4.575-4.031H4.965zm19.07 8.406H4.965C2.227 10.5 0 8.537 0 6.125S2.227 1.75 4.965 1.75h19.07C26.773 1.75 29 3.713 29 6.125S26.773 10.5 24.035 10.5z"></path><path d="M22.41 5.486a.674.674 0 110-1.346.674.674 0 110 1.346m0-1.986c-.729 0-1.32.588-1.32 1.313 0 .724.591 1.312 1.32 1.312.727 0 1.317-.588 1.317-1.313 0-.724-.59-1.312-1.318-1.312m-6.151 1.986a.675.675 0 01-.677-.673c0-.373.304-.673.677-.673a.674.674 0 110 1.346m0-1.986c-.728 0-1.319.588-1.319 1.313 0 .724.59 1.312 1.319 1.312.727 0 1.318-.588 1.318-1.313 0-.724-.59-1.312-1.318-1.312"></path><path d="M20.995 4.767c-.09.02-.229.038-.282.038-.245 0-.299-.061-.299-.233v-.97h.587v-.404h-.587v-.573h-.659l-.138.573h-.497a.989.989 0 00-.842.431l-.229-.431h-.473V5.21h.809v-.876c0-.441.356-.724.779-.733h.442v1.001c0 .472.33.647.868.647.276 0 .49-.043.617-.074l-.096-.409zm3.611-.437v1.795h-.879V3.5h.533l.18.4m.166.055c.224-.258.532-.455.89-.455.615 0 .868.487.868.939v1.686h-.76V4.46c0-.22-.184-.34-.384-.34-.213 0-.35.122-.47.251M11.424 2.625h.824l1.13 1.65v-1.65h.683V5.25h-.746l-1.209-1.815V5.25h-.682zM28.75 1.75v.148h-.228v.727h-.177v-.727h-.224V1.75z"></path><path d="M28.121 2.625V1.75h.24l.16.573.163-.573h.242v.875h-.146V1.94h-.004l-.186.685h-.13l-.189-.685h-.003v.685zM11.424 8.558l.197-.207c.16.08.399.154.69.154.284 0 .458-.087.458-.239 0-.175-.22-.22-.584-.307-.326-.078-.646-.19-.646-.504 0-.295.34-.455.8-.455.306 0 .53.04.711.114l-.156.22a1.651 1.651 0 00-.548-.09c-.256 0-.41.066-.41.204 0 .162.18.203.513.278.35.077.733.187.733.535 0 .295-.31.489-.865.489-.412 0-.714-.097-.893-.192M14.06 7h1.685v.242H14.54v.478h.952v.236h-.952v.552h1.278v.242h-1.757zm1.758.879c0-.497.336-.879 1.008-.879.301 0 .539.067.706.205l-.238.194a.733.733 0 00-.461-.148c-.394 0-.576.228-.576.65 0 .395.192.595.58.595.214 0 .366-.08.499-.179l.24.189c-.175.145-.394.244-.743.244-.693 0-1.015-.373-1.015-.871m1.758.188V7h.427v1.114c0 .238.086.393.449.393.36 0 .45-.155.45-.393V7h.431v1.067c0 .427-.239.683-.884.683-.635 0-.873-.256-.873-.683m3.434-.287c.317 0 .48-.073.48-.275 0-.195-.166-.264-.455-.264h-.401v.538h.377zm.96.97h-.463l-.479-.742h-.394v.742h-.422V7h.814c.504 0 .897.127.897.51 0 .261-.223.393-.473.455l.52.785zM22.848 7h1.687v.242h-1.207v.478h.951v.236h-.951v.552h1.278v.242h-1.758zm2.334 1.508c.56 0 .752-.189.752-.64 0-.396-.15-.627-.702-.627h-.218v1.267h.168zM24.606 7h.6c.782 0 1.158.309 1.158.869 0 .57-.383.881-1.138.881h-.62V7zM5.273 3.272a3.76 3.76 0 00-2.549.964c-.681.622-1.057 1.448-1.057 2.326 0 .879.376 1.705 1.057 2.326a3.765 3.765 0 002.549.964c.962 0 1.867-.343 2.55-.964.679-.621 1.054-1.447 1.054-2.326 0-.878-.375-1.704-1.055-2.326a3.763 3.763 0 00-2.55-.964m0 8.103C2.366 11.375 0 9.215 0 6.562 0 3.91 2.365 1.75 5.273 1.75c2.907 0 5.272 2.159 5.272 4.812 0 2.653-2.365 4.813-5.272 4.813m6.151-9.984h.518V.875h-.518zm0-.874h.518V0h-.518zm-1.757.861h.483V.875h-.483zm0 .853h.487V1.75h-.487zm.878.005h.543V1.75h-.543zm-1.757-.025h.485V1.75h-.485z"></path><path d="M9.667 2.231h.483V1.75h-.483zM10.545.51h.513V0h-.513zm-.878.877h.878V.875h-.878z"></path><path d="M9.667 1.75h.47V.875h-.47zm-.382 0v.353h-.396V1.75h-.655v.254h-.351v.315h.392v.349h-.392v-.35h-.418v.548h-.394v.35H6.81v.351h-.288c-.323.43-1.133 1.77-1.378 2.315-.883-1.097-1.57-1.533-2.109-1.69-.29-.08-.641.204-.158.65 1.11 1.092 1.46 1.997 1.799 2.718.178.38.98.439 1.14.052.341-.819.837-1.738 1.424-2.494v-.39h.314v-.353h.33v-.41h.393v-.394h-.398v-.358h.398v.358h.39l-.001-.355h.312v-.428h.351v-.294h.339V1.75h-.382zM3.12 12.94v-.004c0-.255-.223-.423-.486-.423-.264 0-.496.17-.496.423v.005c0 .255.232.423.496.423.267 0 .486-.163.486-.423zm-1.362-.662h.39v.22a.735.735 0 01.576-.248c.402 0 .791.248.791.686v.005c0 .439-.386.686-.791.686a.762.762 0 01-.576-.233V14h-.39v-1.722z"></path><path d="M4.895 12.754v-.003c0-.169-.209-.309-.506-.309-.303 0-.497.138-.497.305v.004c0 .167.21.308.504.308.306 0 .5-.14.5-.305m-1.38 0v-.003c0-.274.374-.501.88-.501.505 0 .877.223.877.497v.004c0 .272-.375.499-.884.499-.502 0-.874-.223-.874-.496m1.758-.501h.273l.234.593.258-.596h.227l.26.596.238-.593h.267l-.382.872H6.41l-.26-.592-.262.592H5.65zm2.523.429c-.016-.142-.106-.252-.263-.252-.144 0-.246.104-.267.252h.53zm-.766.07v-.003c0-.274.21-.499.505-.499.33 0 .495.24.495.516 0 .02-.001.039-.004.061h-.759c.025.156.145.243.297.243a.39.39 0 00.28-.114l.14.114a.538.538 0 01-.423.18c-.3 0-.53-.202-.53-.497zm1.758-.485h.345v.193c.094-.128.268-.216.534-.21v.208h-.02c-.302 0-.514.112-.514.34v.327h-.345v-.858zm1.644.415c-.015-.142-.106-.252-.262-.252-.145 0-.247.104-.268.252h.53zm-.765.07v-.003c0-.274.21-.499.505-.499.329 0 .495.24.495.516 0 .02-.002.039-.004.061h-.76c.026.156.145.243.298.243.115 0 .198-.04.28-.114l.139.114a.538.538 0 01-.423.18c-.3 0-.53-.202-.53-.497zm3.132-.274v-.005c0-.24-.232-.399-.493-.399-.267 0-.488.151-.488.399v.005c0 .24.225.399.488.399.261 0 .493-.16.493-.4m-1.375 0v-.004c0-.413.383-.647.788-.647.28 0 .458.104.58.22v-.671h.39v1.724h-.39v-.208a.762.762 0 01-.58.234c-.398 0-.788-.234-.788-.647m3.999 0v-.005c0-.24-.223-.399-.486-.399-.265 0-.497.16-.497.399v.005c0 .24.232.399.497.399.267 0 .486-.154.486-.4m-.973.428v.194h-.39v-1.724h.39v.685a.758.758 0 01.577-.234c.402 0 .791.234.791.647v.005c0 .413-.386.647-.791.647a.789.789 0 01-.577-.22"></path><path d="M15.047 13.92l.132-.229c.072.03.15.051.23.051.11 0 .18-.038.244-.155l-.714-1.337h.419l.486.993.444-.993h.409l-.681 1.376c-.137.273-.288.374-.564.374a.982.982 0 01-.405-.08m2.529-1.67h.346l.538 1.335.535-1.335h.338l-.74 1.75h-.276zm2.523.432c-.016-.142-.106-.252-.263-.252-.145 0-.247.104-.268.252h.53zm-.766.07v-.003c0-.274.21-.499.505-.499.33 0 .495.24.495.516l-.003.061h-.76c.026.156.145.243.298.243.115 0 .197-.04.28-.114l.139.114a.54.54 0 01-.423.18c-.3 0-.53-.202-.53-.497z"></path><path d="M20.212 12.267h.346v.193c.093-.128.268-.216.533-.21v.208h-.02c-.302 0-.513.112-.513.34v.327h-.346v-.858zm1.775.858h.414v-1.276h-.414v1.276zm-.017-1.472h.444v-.278h-.444v.278z"></path><path d="M21.97 13.728l.24-.214c.217.14.434.22.716.22.247 0 .403-.084.403-.213v-.005c0-.122-.092-.187-.513-.26-.483-.087-.755-.195-.755-.508v-.005c0-.292.323-.493.775-.493.33 0 .592.075.823.214l-.213.225a1.254 1.254 0 00-.617-.174c-.233 0-.37.09-.37.201v.005c0 .132.104.19.539.268.48.087.73.216.73.498v.005c0 .318-.336.508-.812.508a1.69 1.69 0 01-.946-.272m1.774-.603h.414v-1.276h-.414v1.276zm-.017-1.472h.444v-.278h-.444v.278zm2.253 1.221v-.005c0-.217-.229-.365-.499-.365s-.482.145-.482.362v.006c0 .216.216.364.482.364.27 0 .5-.15.5-.362m-1.292.969l.145-.227c.18.087.374.14.606.14.347 0 .537-.14.537-.405v-.102a.79.79 0 01-.599.242c-.399 0-.772-.23-.772-.617v-.005c0-.39.376-.619.772-.619.287 0 .464.102.596.224v-.196h.39v1.048c0 .222-.074.386-.216.497-.155.12-.393.177-.699.177-.28 0-.54-.055-.76-.157m1.675-1.575h.224v.133a.363.363 0 01.306-.151c.22 0 .348.13.348.33v.545h-.224v-.487c0-.133-.076-.21-.21-.21-.13 0-.22.08-.22.213v.484h-.224v-.857z"></path></g></svg>