<svg width="40" height="25" viewBox="0 0 50 30" xmlns="http://www.w3.org/2000/svg"><g fill="#181818" fill-rule="evenodd"><path d="M47.509 9.692h-2.48a.488.488 0 01-.49-.486v-2.49c0-.268.22-.485.49-.485h2.481c.27 0 .49.218.49.486l-.001 2.49c0 .268-.22.485-.49.485M44.293 6.23h-1.24a.244.244 0 01-.245-.243V4.743c0-.134.11-.243.245-.243h1.24c.136 0 .246.11.245.243v1.245c0 .134-.11.243-.245.243m-13.649 7.502l-2.295 9.245c-.673 2.71-1.822 3.873-3.968 4.015a1.848 1.848 0 01-.156.007c-.463 0-.609-.257-.694-.672l-.04-.179c-.04-.189-.064-.4.045-.549.106-.142.296-.184.587-.209 1.437-.148 1.924-.817 2.403-2.334-.227.077-.5.118-.794.118-1.579 0-2.002-1.107-2.357-2.445l-1.896-6.992c-.063-.237-.105-.479.018-.64.123-.162.363-.184.604-.184h.16c.595 0 .825.177.98.757l1.875 6.932c.243.864.486 1.01 1.095 1.01.497 0 .787-.155.994-1.007l1.656-6.932c.131-.575.365-.76.96-.76h.18c.24 0 .478.022.604.181.126.16.093.401.039.638zM19.061 18.42h-2.207c-1.776 0-2.467.455-2.467 1.62 0 1.064.69 1.58 2.107 1.58 2.147 0 2.567-.66 2.567-1.8v-1.4zm-2.567-5.8c2.905 0 4.317 1.073 4.317 3.282v3.978c0 2.284-1.325 3.302-4.297 3.302-2.5 0-3.878-1.115-3.878-3.141 0-2.089 1.334-3.062 4.198-3.062h2.227v-1.077c0-1.208-.72-1.701-2.487-1.701-.983 0-1.882.146-2.164.217-.119.03-.219.045-.305.045-.177 0-.307-.064-.389-.19-.07-.107-.102-.26-.102-.481v-.16c0-.565.206-.701.699-.809.278-.056 1.011-.204 2.181-.204zm-5.613 1.34c0 1.662-.422 2.564-2.646 2.564H4.81V12.23c0-.595.22-.816.811-.816h2.614c1.676 0 2.646.416 2.646 2.544zM8.235 9.691H5.282C3.704 9.692 3 10.401 3 11.99v10.207c0 .614.196.811.805.811h.2c.61 0 .805-.197.805-.81v-3.972h3.425c3.04 0 4.456-1.356 4.456-4.267 0-2.91-1.416-4.267-4.456-4.267z" fill-rule="nonzero"></path><path d="M32.664 10.49c1.17 0 1.605.198 1.605 1.293v3.143l.002.058v3.583c0 .438.082.786.251 1.057.32.505.95.735 1.96.736 1.01-.001 1.64-.231 1.96-.736.169-.271.25-.62.25-1.057v-3.583l.002-.058.001-3.143c0-1.095.435-1.294 1.604-1.294h.368c.205 0 .387.006.549.022l-.003 2.125c0 .266.21.48.47.48h.588v5.45c0 1.092-.238 2.016-.7 2.76-.893 1.444-2.622 2.212-5.08 2.212h-.018c-2.458 0-4.187-.768-5.08-2.211-.462-.745-.7-1.669-.7-2.76v-6.784c0-1.095.434-1.294 1.603-1.294h.368zm11.404-.797c.26 0 .47.215.47.48v2.464c0 .266-.211.48-.471.48H42.27v-1.334c0-.904-.295-1.197-1.055-1.272l-.002-.338c0-.266.211-.48.471-.48h2.383z"></path></g></svg>