<svg viewBox="0 0 35 12" xmlns="http://www.w3.org/2000/svg"><g fill="#8E8E8E" fill-rule="evenodd"><path d="M19.627 6.299c-.213.427-.99 1.275-.838 1.459l1.387-.382-.55-1.077zM5.167 4.606v1.252c.742.182 1.775-.496 1.015-1.1-.302-.17-.672-.151-1.015-.152zM3.16 3.596c1.23.033 2.479-.089 3.694.127.803.128 1.592.696 1.53 1.472.049.941-1.023 1.534-1.978 1.616-.35.207-1.326-.22-1.225.314v1.148H3.159V3.596zm12.746-2.482c.804-.06 1.465.672 1.185 1.347-.334 1.004-2.354.87-2.416-.212-.12-.636.526-1.173 1.231-1.135zM16.403 0L.03.81l4.552 10.877 9.397-2.597c-.207-.356-.759-.759-.759-.759s-.448-.078-.75.01c-1.336.042-2.96-.319-3.509-1.517-.521-1.082.065-2.44 1.295-2.916 1.13-.465 2.493-.516 3.672-.16l-.004 1.254c-.859-.436-2.262-.585-2.853.275-.514.793.123 1.885 1.181 1.918.615.163 1.731-.228 1.731-.228s.532.037.793.266c.228.087.054-.496.109-.7V3.597h2.036v3.435a39.097 39.097 0 011.837-2.428L16.403 0zm18.223 7.617h-.276v-.936H34v-.2h.976v.2h-.35v.936zm-.826 0h-.347l-.561-.859h-.009c.013.152.016.26.016.326v.537h-.242V6.485h.346l.562.852h.008a6.25 6.25 0 01-.012-.312v-.54h.247v1.132H33.8zm-1.602 0l-.095-.27h-.47l-.096.27h-.295l.454-1.143h.335l.458 1.143h-.291zm-.16-.473c-.087-.245-.135-.386-.147-.417a.358.358 0 01-.023-.077c-.021.066-.076.23-.168.49h.338v.004zm-1.231.473h.275V6.481h-.275v1.136zm-1.025 0V6.481h.276v.94h.526v.2h-.802v-.004zm-.242-.781a.324.324 0 01-.132.28.626.626 0 01-.37.098h-.12v.403h-.271V6.481h.414c.156 0 .275.028.359.088.076.06.12.15.12.267zm-.622.182h.091c.084 0 .148-.014.188-.046a.152.152 0 00.063-.126c0-.056-.015-.098-.051-.126a.267.267 0 00-.163-.043h-.124v.341h-.004zm-1.43.6l-.312-.891h-.008c.012.183.016.301.016.364v.53h-.243V6.485h.375l.307.87h.003l.323-.87h.375V7.62h-.255v-.627c0-.032.004-.124.012-.263h-.008l-.335.89h-.25v-.004zm-.818-.569c0 .19-.052.333-.16.435-.107.101-.258.15-.454.15-.199 0-.35-.049-.455-.15-.107-.102-.159-.246-.159-.435s.052-.333.16-.434c.107-.098.26-.151.459-.151.198 0 .35.05.453.15.104.102.156.246.156.435zm-.945 0c0 .126.028.225.084.288.055.063.135.097.247.097.22 0 .327-.125.327-.38 0-.257-.108-.386-.327-.386-.108 0-.191.03-.247.097-.056.06-.084.158-.084.284zm-.832-.381a.297.297 0 00-.24.1.441.441 0 00-.083.285c0 .252.107.379.323.379.09 0 .199-.022.33-.06v.203c-.107.038-.223.06-.354.06-.188 0-.332-.05-.43-.151-.1-.102-.149-.246-.149-.43 0-.12.024-.222.072-.313a.48.48 0 01.211-.203c.092-.05.2-.07.324-.07.127 0 .25.028.378.08l-.088.196a.99.99 0 00-.147-.052.444.444 0 00-.147-.024zM34.912 4.7c.025.539-.455 1.005-1.034 1.121-.646.133-1.353.091-1.955-.164v-.904c.48.204 1.022.364 1.56.297.567-.145.08-.621-.288-.665-.51-.195-1.128-.446-1.22-.99a1.008 1.008 0 01.64-1.194c.731-.285 1.587-.172 2.297.105l-.355.782c-.402-.15-.86-.317-1.3-.202-.461.294.254.561.538.662.485.179 1.053.455 1.104.971.01.06.013.121.013.182m-3.448 0c.025.538-.454 1.004-1.034 1.12-.646.133-1.354.091-1.955-.164v-.904c.48.204 1.022.364 1.561.297.567-.145.08-.621-.289-.665-.51-.195-1.128-.446-1.22-.99a1.008 1.008 0 01.641-1.194c.731-.285 1.586-.172 2.296.105l-.354.782c-.402-.15-.861-.317-1.301-.202-.461.294.254.561.538.662.486.179 1.052.455 1.104.971.01.06.013.121.013.182m-3.555-.817c.024.655-.276 1.368-.96 1.694-.705.359-1.54.241-2.318.262-.111-.03-.375.073-.345-.081v-3.67c.655.011 1.312-.026 1.964.03.695.063 1.363.472 1.553 1.081.077.221.106.453.106.684m-1.2.035c.018-.386-.126-.875-.615-.978-.214-.052-.437-.03-.656-.035V5.01c.391.015.862-.009 1.083-.34.157-.224.186-.494.189-.75"></path><path d="M20.082 3.839c-1.34 1.546-2.76 3.15-3.877 4.827-.677-.423-1.158-1.12-1.995-1.323-.663-.071-.839.705-.428 1.052.41.658 1.018 1.221 1.715 1.648.563.252 1.253.014 1.598-.423.662-.718 1.039-1.594 1.575-2.381 1.126-1.786 4.303-4.514 4.084-4.951-.218-.437-2.323 1.15-2.672 1.55"></path></g></svg>