<svg viewBox="0 0 49 12" xmlns="http://www.w3.org/2000/svg"><g fill="none" fill-rule="evenodd"><path fill="#128242" d="M45.708 1.714l2.862 4.713-6.017 4.716z"></path><path fill="#E4712B" d="M43.131 1.714l2.86 4.713-6.017 4.716z"></path><path d="M.43 9.195L3.132.11h4.32c1.35 0 2.251.2 2.71.61.455.409.543 1.074.269 2.01-.166.55-.419 1.014-.765 1.379-.345.366-.798.656-1.357.869.474.106.776.317.91.634.136.316.12.778-.043 1.384l-.329 1.269v.034c-.096.355-.068.546.086.561l-.1.336h-2.92a7.56 7.56 0 01.047-.565c.02-.164.047-.291.073-.379l.272-.907c.138-.472.147-.801.019-.99-.129-.196-.417-.291-.871-.291H4.225l-.937 3.132H.43zm4.402-5.18h1.316c.46 0 .801-.061 1.01-.188.211-.129.368-.345.46-.658.095-.319.071-.54-.065-.667-.136-.128-.462-.19-.974-.19h-1.24l-.507 1.703zM18.451 2.49L16.46 9.195h-2.42l.297-.982c-.426.39-.862.688-1.301.877a3.368 3.368 0 01-1.38.288c-.4 0-.745-.068-1.021-.202a1.347 1.347 0 01-.63-.607c-.124-.236-.178-.526-.157-.873.023-.343.152-.919.392-1.726l1.032-3.48h2.648l-1.03 3.464c-.151.506-.188.863-.114 1.057.077.195.28.297.612.297.333 0 .614-.113.846-.343.235-.229.416-.569.552-1.021l1.021-3.454h2.645zm-.961 6.705L20.19.11h3.713c.819 0 1.453.045 1.906.145.45.094.804.248 1.067.466.33.284.531.636.615 1.058.078.422.032.914-.14 1.49-.302 1.017-.831 1.795-1.587 2.34-.758.536-1.695.806-2.814.806h-1.738l-.825 2.781H17.49zm4.38-5h.934c.604 0 1.028-.07 1.276-.204.24-.137.412-.378.517-.722.104-.348.077-.592-.08-.728-.153-.135-.54-.204-1.16-.204h-.932l-.555 1.858zm8.596 5l.027-.636a4.92 4.92 0 01-1.294.665 4.382 4.382 0 01-1.387.216c-.75 0-1.273-.19-1.576-.558-.298-.37-.347-.899-.144-1.574.195-.667.542-1.158 1.043-1.472.498-.317 1.33-.545 2.495-.69.148-.022.347-.04.595-.068.862-.093 1.346-.308 1.45-.658.055-.191.022-.333-.106-.42-.123-.09-.353-.134-.684-.134-.276 0-.497.053-.679.164a1.002 1.002 0 00-.408.506h-2.582c.233-.755.71-1.326 1.425-1.707.712-.388 1.651-.575 2.815-.575.547 0 1.037.048 1.47.152.433.1.75.24.956.412.254.214.404.457.446.727.05.27-.005.654-.155 1.158l-1.11 3.738a.694.694 0 00-.024.331.396.396 0 00.146.234l-.06.19h-2.659zm.644-2.994a10.05 10.05 0 01-1.1.318c-.714.179-1.115.417-1.202.712-.06.19-.036.335.064.446.097.106.267.16.507.16.44 0 .792-.105 1.055-.31.265-.207.461-.532.6-.982.024-.095.045-.164.059-.215l.017-.129zm2.035 5.637l.588-1.985h.757c.254 0 .452-.047.593-.132.144-.088.241-.237.297-.437.029-.089.046-.181.058-.287.007-.112.007-.23 0-.367l-.404-6.14h2.68l-.042 4.069 2.34-4.068h2.492l-4.137 6.672c-.47.746-.81 1.258-1.027 1.538a3.28 3.28 0 01-.613.636 2.35 2.35 0 01-.848.427c-.308.085-.778.127-1.409.127a19.09 19.09 0 01-1.325-.053" fill="#293267"></path></g></svg>