<svg viewBox="0 0 41 12" xmlns="http://www.w3.org/2000/svg" xmlns:xlink="http://www.w3.org/1999/xlink"><defs><path id="tm-amex_inline_svg__a" d="M.308 0H38.43v1.62H.308z"></path></defs><g fill="none" fill-rule="evenodd"><path d="M19.813 7.074c-.068-.719-.461-1.1-1.19-1.1-.588 0-1.129.302-1.245 1.1h2.435zm-3.664.462c0-1.786 1.405-2.45 2.486-2.45 1.17 0 2.289.63 2.289 2.547v.257h-3.56c.048.853.628 1.227 1.393 1.227a1.996 1.996 0 001.464-.55l.638.567c-.554.564-1.357.876-2.191.852-1.305-.001-2.512-.72-2.512-2.45h-.007zM13.18 9.888V6.043h-.898v-.87h.898v-.486c0-.79.36-1.402 1.69-1.402.227 0 .63.036.72.043v.843a2.498 2.498 0 00-.414-.036c-.433 0-.785.107-.785.612v.417h1.139v.87h-1.14v3.854h-1.21zm-3.17-1.314V7.536c-1.438.177-2.21.496-2.21 1.01 0 .374.285.568.718.568a2.208 2.208 0 001.492-.54zm-3.392.176c0-1.021.962-1.705 3.399-1.948v-.145c0-.47-.275-.675-.855-.675-.719 0-1.317.324-1.76.64l-.589-.684a3.98 3.98 0 012.516-.852c1.394 0 1.875.604 1.875 1.705v1.947c0 .568.04.914.148 1.154h-1.217a1.565 1.565 0 01-.118-.604c-.54.487-1.15.676-1.926.676-.845-.005-1.473-.432-1.473-1.213V8.75zM.054 8.342l.972-.461c.432.773 1.1 1.144 2.003 1.144.904 0 1.484-.258 1.484-.852 0-.567-.452-.834-1.65-1.153C1.457 6.646.326 6.3.326 5.049c0-1.118 1.012-1.855 2.485-1.855 1.437 0 2.28.639 2.721 1.41l-.898.56c-.36-.61-1.072-.981-1.836-.96-.804 0-1.266.267-1.266.746 0 .612.52.811 1.708 1.136 1.376.364 2.476.772 2.476 2.006 0 1.075-1.012 1.917-2.741 1.917-1.438.003-2.46-.672-2.922-1.667zM39.65 5.846c.093 0 .144-.028.144-.1-.001-.057-.054-.102-.117-.101a.113.113 0 00-.027.003h-.113v.198h.113zm-.314-.364h.337c.21 0 .335.085.335.259a.224.224 0 01-.154.227l.179.299h-.22l-.154-.277h-.102v.277h-.21v-.783l-.011-.002zm.945.41c.008-.313-.265-.573-.613-.581h-.018c-.356-.008-.651.247-.66.568-.007.323.275.589.631.596.356.008.652-.248.66-.57v-.012zm-1.423 0c-.008-.39.339-.713.772-.72h.025c.43-.004.782.307.788.695v.02c.006.391-.34.713-.773.72h-.026c-.427.006-.78-.302-.786-.688v-.026zm-5.275 5.682l.196-.612c.25.056.508.083.765.08.54 0 .787-.206.994-.666l.196-.461-2.003-4.707h.898l1.523 3.79h.02l1.518-3.802h.856l-2.221 5.22c-.36.825-.756 1.27-1.767 1.27a3.492 3.492 0 01-.975-.112zm-1.424-4.43c-.068-.834-.51-1.402-1.365-1.402-.697 0-1.357.435-1.474 1.402h2.839zm-3.703.4c0-1.705 1.258-2.435 2.349-2.435 1.228 0 2.155.78 2.155 2.477v.162h-3.665c.029 1.057.708 1.623 1.563 1.623.748 0 1.17-.276 1.562-.762l.49.39c-.462.645-1.263 1.023-2.113.995-1.221-.01-2.343-.818-2.343-2.45h.002zm-6.012 2.343V3.32h.858v3.39l3.292-3.39h1.04l-2.494 2.5 2.84 4.06h-.993l-2.415-3.47-1.269 1.26v2.218h-.864.006z" fill="#8E8E8E"></path><mask id="tm-amex_inline_svg__b" fill="#fff"><use xlink:href="#tm-amex_inline_svg__a"></use></mask><path d="M28 .7h-.36V.353h.37c.146 0 .25.049.25.163-.003.107-.102.192-.221.189A.223.223 0 0128.002.7H28zm.153-.662h-1.22v1.533h.7v-.544h.459a1.56 1.56 0 00.556-.077.438.438 0 00.33-.423c0-.419-.407-.489-.825-.489zm-6.288 0h1.746v.313h-.973V.64h.973v.297h-.973v.298h.973v.337h-1.746V.038zm-6.052.883l.262-.487.263.487h-.525zm-.18-.883l-.867 1.533h.718l.16-.302h.898l.16.302h.755L16.589.038h-.956zm3.94 0h.699v1.533h-.805L18.436.706v.865h-.703V.038h.797l1.039.869V.038h.003zm10.858.69h-.416V.364h.417c.111-.024.223.038.25.138.026.1-.041.201-.152.226a.235.235 0 01-.094 0h-.005zm.977-.203c0-.417-.408-.487-.824-.487H29.32v1.533h.698V1h.056l.539.57h.983l-.72-.604c.34-.052.535-.214.535-.442h-.004zm7.015.59c0 .161-.14.504-1.004.504-.719 0-.968-.13-1.121-.206l.227-.274a1.9 1.9 0 00.697.107c.179 0 .346-.033.348-.133.001-.1-.112-.13-.383-.148-.272-.018-.801-.08-.805-.441C36.38.164 36.79 0 37.385 0c.344-.01.685.052.998.18l-.24.27a1.7 1.7 0 00-.555-.085c-.18 0-.37.03-.37.143 0 .114.194.118.332.134.2.005.4.037.59.095.181.049.301.206.289.377h-.006zm-2.351 0c0 .161-.143.504-1.005.504-.718 0-.934-.13-1.078-.206l.193-.274a1.9 1.9 0 00.697.107c.18 0 .349-.033.349-.133s-.112-.13-.383-.148c-.272-.018-.768-.08-.77-.441-.005-.36.365-.522.965-.522.343-.009.685.053.997.18l-.24.27a1.72 1.72 0 00-.557-.084c-.18 0-.37.03-.37.143 0 .113.194.118.332.133.2.005.4.038.59.096.179.05.297.205.285.375h-.005zM31.908.038h1.745v.313h-.973V.64h.973v.297h-.973v.298h.973v.337h-1.745V.038zM25.78.78l.786.79h-.834l-.458-.487-.457.488h-.833l.787-.791-.708-.742h.855l.36.41.359-.41h.846L25.78.78zM5.806.038l.41 1.533h-.699L5.285.702l-.448.869h-.443L3.946.702l-.225.869h-.658l.41-1.533h.751l.4.758.396-.758h.794-.008zM1.362.921l.262-.487.262.487h-.524zm-.18-.883L.309 1.571h.718l.16-.302h.899l.159.302H3L2.13.038h-.948zm5.414 0H8.34v.313h-.973V.64h.973v.297h-.973v.298h.973v.337H6.596V.038zm4.824 0h.744v1.533h-.74V.038h-.004zm2.478-.036a2.21 2.21 0 01.67.085v.375a2.391 2.391 0 00-.539-.065c-.117 0-.665.016-.665.42 0 .405.548.408.665.408.182-.003.363-.025.539-.066v.376a2.26 2.26 0 01-.67.083c-.36 0-1.317-.09-1.317-.802 0-.713.95-.814 1.317-.814zM9.967.728h-.415V.364h.417c.111-.022.222.04.247.14.026.101-.044.202-.155.225a.238.238 0 01-.094 0zm.978-.203c0-.417-.408-.487-.825-.487H8.852v1.533h.7V1h.056l.54.57h.981l-.718-.604c.338-.052.534-.214.534-.442z" fill="#8E8E8E" mask="url(#tm-amex_inline_svg__b)"></path></g></svg>