<svg viewBox="0 0 26 12" xmlns="http://www.w3.org/2000/svg" xmlns:xlink="http://www.w3.org/1999/xlink"><defs><path id="tm-verified-by-visa_inline_svg__a" d="M19.54 0h3.962v4.987H19.54z"></path></defs><g fill="none" fill-rule="evenodd"><path d="M12.262 6.24l-1.506 3.666-.158-.744c-.375-.913-1.187-1.87-2.132-2.259l1.377 4.708h1.627l2.42-5.366h-1.627l-.001-.004zm1.289 5.373l.963-5.378h1.536l-.962 5.378zm7.116-5.245a4.156 4.156 0 00-1.377-.227c-1.522 0-2.59.73-2.6 1.775-.009.773.765 1.205 1.347 1.463.581.256.8.428.8.665 0 .361-.475.526-.922.526-.5.012-.997-.086-1.446-.286l-.198-.085-.215 1.202a5.093 5.093 0 001.714.286c1.615 0 2.663-.722 2.676-1.836 0-.614-.404-1.078-1.292-1.462-.536-.25-.868-.413-.863-.667 0-.223.278-.463.882-.463.395-.008.788.062 1.15.207l.138.062.208-1.166-.002.006zm2.045 3.334c.128-.308.613-1.504.613-1.504s.127-.311.204-.511l.102.463.36 1.552h-1.279zm1.896-3.461h-1.185c-.368 0-.644.094-.807.446l-2.284 4.927h1.615s.264-.663.316-.809h1.969c.047.187.186.804.186.804h1.423l-1.233-5.368z" fill="#8E8E8E"></path><path d="M9.36 6.238H6.88l-.014.093c1.928.445 3.2 1.54 3.73 2.832l-.539-2.471c-.093-.34-.361-.442-.696-.453v-.001zm-7.132-1.3H1.25L.117.334 1.202.17l.774 3.605L3.946.218h1.041zm3.725-2.813c-.362 0-.7.258-.86.797h1.449c.027-.51-.158-.797-.588-.797h-.001zm1.376 1.308H4.99c-.063.64.266.919.823.919.475 0 .88-.157 1.323-.409v.642a3.036 3.036 0 01-1.525.401c-1.017 0-1.69-.525-1.488-1.712.181-1.068 1.002-1.711 1.951-1.711 1.094 0 1.457.742 1.299 1.674-.011.07-.033.15-.041.198l-.003-.002zm1.523-.403l-.316 1.887h-.905l.56-3.29h.77v.656c.306-.381.724-.702 1.294-.73v.811a2.085 2.085 0 00-1.403.66v.006zm2.506-1.953c-.238.02-.449-.139-.47-.354a.354.354 0 01.005-.11c.052-.277.32-.48.632-.476.242-.007.444.164.452.382a.366.366 0 01-.01.094c-.052.27-.311.466-.614.464h.005zm-1.116 3.841l.562-3.29h.904l-.56 3.29h-.906zM14.216.729c-.266-.03-.51.14-.543.381a.337.337 0 00-.003.034l-.082.484h.693v.668h-.807l-.447 2.622h-.901l.447-2.622h-.527l.113-.668h.528l.096-.57c.125-.73.684-1 1.43-1 .122 0 .244.009.365.028v.667a2.471 2.471 0 00-.373-.027l.011.003zm1.125.348c-.238.02-.449-.139-.47-.354a.354.354 0 01.006-.11c.051-.277.32-.48.632-.476.24-.013.448.152.463.37a.342.342 0 01-.008.106c-.052.27-.312.466-.615.464h-.008zm-1.115 3.841l.56-3.29h.906l-.564 3.29h-.906.004zm3.597-2.793c-.361 0-.7.258-.86.797h1.449c.026-.51-.159-.797-.589-.797zM19.2 3.433h-2.334c-.064.64.265.919.823.919.474 0 .879-.157 1.323-.409v.642a3.04 3.04 0 01-1.525.401c-1.018 0-1.69-.525-1.489-1.712C16.18 2.206 17 1.563 17.95 1.563c1.093 0 1.456.742 1.299 1.674-.011.07-.034.15-.041.198l-.008-.002z" fill="#8E8E8E"></path><mask id="tm-verified-by-visa_inline_svg__b" fill="#fff"><use xlink:href="#tm-verified-by-visa_inline_svg__a"></use></mask><path d="M22.183 2.391a1.436 1.436 0 00-.684-.142c-.474 0-.882.346-1.005 1.07-.11.64.142.94.542.94.331 0 .617-.177.906-.45l.242-1.416-.001-.002zm-.302 2.527v-.456a1.778 1.778 0 01-1.206.525c-.761 0-1.286-.511-1.096-1.621.208-1.225 1.049-1.77 1.896-1.77.28-.004.559.037.823.122l.27-1.587.934-.131-.837 4.918h-.784zm4.056-1.998a1.046 1.046 0 00-.66.326l-.195 1.13c.134.05.279.073.423.067.435 0 .739-.237.835-.805.082-.48-.095-.713-.403-.713V2.92zm-.506 2.028a3.535 3.535 0 01-1.106-.166l.599-3.498.701-.098-.257 1.525c.226-.2.524-.317.84-.33.582 0 .972.393.83 1.229-.158.918-.79 1.347-1.607 1.347v-.009z" fill="#8E8E8E" mask="url(#tm-verified-by-visa_inline_svg__b)"></path></g></svg>